<svg aria-hidden="true" style="position: absolute; width: 0; height: 0; overflow: hidden;" version="1.1" xmlns="http://www.w3.org/2000/svg" xmlns:xlink="http://www.w3.org/1999/xlink">
<defs>
<symbol id="icon-profile" viewBox="0 0 30 32">
<path d="M15.158 16c2.010 0 3.938-0.799 5.359-2.22s2.22-3.349 2.22-5.359c0-2.010-0.798-3.938-2.22-5.359s-3.349-2.22-5.359-2.22c-2.010 0-3.938 0.798-5.359 2.22s-2.22 3.349-2.22 5.359c0 2.010 0.799 3.938 2.22 5.359s3.349 2.22 5.359 2.22v0zM20.211 8.421c0 1.34-0.532 2.625-1.48 3.573s-2.233 1.48-3.573 1.48c-1.34 0-2.625-0.532-3.573-1.48s-1.48-2.233-1.48-3.573c0-1.34 0.532-2.625 1.48-3.573s2.233-1.48 3.573-1.48c1.34 0 2.625 0.532 3.573 1.48s1.48 2.233 1.48 3.573v0zM30.316 28.632c0 2.526-2.526 2.526-2.526 2.526h-25.263c0 0-2.526 0-2.526-2.526s2.526-10.105 15.158-10.105c12.632 0 15.158 7.579 15.158 10.105zM27.789 28.621c-0.003-0.621-0.389-2.491-2.102-4.204-1.647-1.647-4.747-3.365-10.53-3.365-5.785 0-8.883 1.718-10.53 3.365-1.713 1.713-2.097 3.582-2.102 4.204h25.263z"></path>
</symbol>
<symbol id="icon-project" viewBox="0 0 38 32">
<path d="M1.296 6.888l-0.096-2.088c0-1.273 0.506-2.494 1.406-3.394s2.121-1.406 3.394-1.406h8.813c1.273 0 2.494 0.506 3.394 1.406l1.987 1.987c0.9 0.9 2.121 1.406 3.394 1.406h9.557c0.667-0 1.327 0.139 1.937 0.408s1.158 0.662 1.608 1.155c0.45 0.492 0.792 1.073 1.005 1.706s0.292 1.302 0.231 1.966l-1.529 16.8c-0.108 1.193-0.659 2.302-1.543 3.109s-2.038 1.256-3.236 1.256h-24.835c-1.197-0-2.352-0.448-3.236-1.256s-1.434-1.917-1.543-3.109l-1.529-16.8c-0.102-1.112 0.188-2.224 0.821-3.144v-0.002zM5.256 7.2c-0.333-0-0.663 0.069-0.968 0.204s-0.579 0.331-0.804 0.577c-0.225 0.246-0.396 0.536-0.503 0.852s-0.146 0.651-0.116 0.983l1.529 16.8c0.054 0.596 0.329 1.151 0.771 1.555s1.019 0.628 1.617 0.629h24.835c0.599-0.001 1.176-0.225 1.617-0.629s0.717-0.959 0.771-1.555l1.529-16.8c0.030-0.332-0.010-0.667-0.116-0.983s-0.278-0.606-0.503-0.852-0.499-0.443-0.804-0.577c-0.305-0.134-0.635-0.204-0.968-0.204h-27.888zM16.512 3.103c-0.223-0.223-0.488-0.4-0.78-0.521s-0.604-0.183-0.92-0.182h-8.813c-0.629-0-1.232 0.246-1.681 0.687s-0.707 1.039-0.719 1.668l0.014 0.334c0.514-0.187 1.066-0.288 1.642-0.288h12.95l-1.697-1.697h0.002z"></path>
</symbol>
<symbol id="icon-connect" viewBox="0 0 31 32">
<path d="M7.016 3.19c-0.113-0.146-0.256-0.266-0.42-0.352s-0.343-0.137-0.527-0.148c-0.184-0.011-0.369 0.016-0.542 0.082s-0.33 0.167-0.46 0.297l-1.985 1.987c-0.927 0.929-1.269 2.244-0.864 3.398 1.681 4.776 4.417 9.113 8.003 12.687 3.575 3.586 7.911 6.321 12.687 8.003 1.154 0.405 2.469 0.063 3.398-0.864l1.985-1.985c0.131-0.131 0.232-0.287 0.297-0.46s0.093-0.357 0.082-0.542c-0.011-0.184-0.062-0.364-0.148-0.527s-0.206-0.306-0.352-0.42l-4.429-3.444c-0.156-0.121-0.337-0.205-0.53-0.245s-0.392-0.037-0.584 0.011l-4.205 1.050c-0.561 0.14-1.149 0.133-1.707-0.022s-1.065-0.451-1.475-0.86l-4.716-4.717c-0.409-0.409-0.706-0.917-0.861-1.474s-0.163-1.146-0.023-1.707l1.052-4.205c0.048-0.191 0.052-0.391 0.011-0.584s-0.124-0.374-0.245-0.53l-3.444-4.429zM3.617 1.621c0.336-0.336 0.74-0.597 1.184-0.765s0.92-0.24 1.394-0.21c0.474 0.030 0.937 0.16 1.357 0.382s0.788 0.531 1.080 0.906l3.444 4.428c0.632 0.812 0.854 1.87 0.605 2.868l-1.050 4.205c-0.054 0.218-0.051 0.446 0.009 0.662s0.175 0.413 0.333 0.572l4.717 4.717c0.159 0.159 0.356 0.274 0.573 0.334s0.445 0.063 0.663 0.008l4.203-1.050c0.493-0.123 1.007-0.133 1.504-0.028s0.964 0.321 1.365 0.633l4.428 3.444c1.592 1.238 1.738 3.59 0.313 5.013l-1.985 1.985c-1.421 1.421-3.544 2.045-5.524 1.348-5.067-1.783-9.667-4.683-13.459-8.486-3.803-3.792-6.703-8.392-8.486-13.457-0.695-1.978-0.071-4.103 1.35-5.524l1.983-1.985z"></path>
</symbol>
<symbol id="icon-community" viewBox="0 0 31 32">
<path d="M3.84 2.56c-0.509 0-0.998 0.202-1.358 0.562s-0.562 0.848-0.562 1.358v15.36c0 0.509 0.202 0.998 0.562 1.358s0.848 0.562 1.358 0.562h18.405c1.018 0 1.995 0.405 2.715 1.125l3.84 3.84v-22.245c0-0.509-0.202-0.998-0.562-1.358s-0.849-0.562-1.358-0.562h-23.040zM26.88 0.64c1.018 0 1.995 0.405 2.715 1.125s1.125 1.697 1.125 2.715v24.563c0 0.19-0.056 0.376-0.162 0.534s-0.256 0.281-0.431 0.354c-0.175 0.073-0.369 0.091-0.555 0.054s-0.357-0.129-0.491-0.263l-5.478-5.478c-0.36-0.36-0.848-0.562-1.357-0.563h-18.405c-1.018 0-1.995-0.405-2.715-1.125s-1.125-1.697-1.125-2.715v-15.36c0-1.018 0.405-1.995 1.125-2.715s1.697-1.125 2.715-1.125h23.040z"></path>
<path d="M5.76 7.36c0-0.255 0.101-0.499 0.281-0.679s0.424-0.281 0.679-0.281h17.28c0.255 0 0.499 0.101 0.679 0.281s0.281 0.424 0.281 0.679-0.101 0.499-0.281 0.679c-0.18 0.18-0.424 0.281-0.679 0.281h-17.28c-0.255 0-0.499-0.101-0.679-0.281s-0.281-0.424-0.281-0.679zM5.76 12.16c0-0.255 0.101-0.499 0.281-0.679s0.424-0.281 0.679-0.281h17.28c0.255 0 0.499 0.101 0.679 0.281s0.281 0.424 0.281 0.679-0.101 0.499-0.281 0.679c-0.18 0.18-0.424 0.281-0.679 0.281h-17.28c-0.255 0-0.499-0.101-0.679-0.281s-0.281-0.424-0.281-0.679zM5.76 16.96c0-0.255 0.101-0.499 0.281-0.679s0.424-0.281 0.679-0.281h9.6c0.255 0 0.499 0.101 0.679 0.281s0.281 0.424 0.281 0.679-0.101 0.499-0.281 0.679c-0.18 0.18-0.424 0.281-0.679 0.281h-9.6c-0.255 0-0.499-0.101-0.679-0.281s-0.281-0.424-0.281-0.679z"></path>
</symbol>
<symbol id="icon-sources" viewBox="0 0 31 32">
<path d="M9.6 8.32c-0.255 0-0.499 0.101-0.679 0.281s-0.281 0.424-0.281 0.679c0 0.255 0.101 0.499 0.281 0.679s0.424 0.281 0.679 0.281h11.52c0.255 0 0.499-0.101 0.679-0.281s0.281-0.424 0.281-0.679-0.101-0.499-0.281-0.679c-0.18-0.18-0.424-0.281-0.679-0.281h-11.52zM8.64 13.12c0-0.255 0.101-0.499 0.281-0.679s0.424-0.281 0.679-0.281h11.52c0.255 0 0.499 0.101 0.679 0.281s0.281 0.424 0.281 0.679-0.101 0.499-0.281 0.679c-0.18 0.18-0.424 0.281-0.679 0.281h-11.52c-0.255 0-0.499-0.101-0.679-0.281s-0.281-0.424-0.281-0.679zM9.6 16c-0.255 0-0.499 0.101-0.679 0.281s-0.281 0.424-0.281 0.679 0.101 0.499 0.281 0.679c0.18 0.18 0.424 0.281 0.679 0.281h11.52c0.255 0 0.499-0.101 0.679-0.281s0.281-0.424 0.281-0.679-0.101-0.499-0.281-0.679c-0.18-0.18-0.424-0.281-0.679-0.281h-11.52zM9.6 19.84c-0.255 0-0.499 0.101-0.679 0.281s-0.281 0.424-0.281 0.679 0.101 0.499 0.281 0.679c0.18 0.18 0.424 0.281 0.679 0.281h5.76c0.255 0 0.499-0.101 0.679-0.281s0.281-0.424 0.281-0.679-0.101-0.499-0.281-0.679c-0.18-0.18-0.424-0.281-0.679-0.281h-5.76z"></path>
<path d="M3.84 4.48c0-1.018 0.405-1.995 1.125-2.715s1.697-1.125 2.715-1.125h15.36c1.018 0 1.995 0.405 2.715 1.125s1.125 1.697 1.125 2.715v23.040c0 1.018-0.405 1.995-1.125 2.715s-1.697 1.125-2.715 1.125h-15.36c-1.018 0-1.995-0.405-2.715-1.125s-1.125-1.697-1.125-2.715v-23.040zM23.040 2.56h-15.36c-0.509 0-0.998 0.202-1.358 0.562s-0.562 0.848-0.562 1.358v23.040c0 0.509 0.202 0.998 0.562 1.358s0.848 0.562 1.358 0.562h15.36c0.509 0 0.998-0.202 1.358-0.562s0.562-0.849 0.562-1.358v-23.040c0-0.509-0.202-0.998-0.562-1.358s-0.849-0.562-1.358-0.562z"></path>
</symbol>

<symbol id="icon-chevron-double" viewBox="0 0 31 32">
<path d="M16.040 3.8c0.089 0.089 0.16 0.195 0.209 0.312s0.073 0.242 0.073 0.368-0.025 0.251-0.073 0.368c-0.048 0.117-0.119 0.223-0.209 0.312l-10.842 10.84 10.842 10.84c0.18 0.18 0.281 0.425 0.281 0.68s-0.101 0.499-0.281 0.68c-0.18 0.18-0.425 0.281-0.68 0.281s-0.499-0.101-0.68-0.281l-11.52-11.52c-0.089-0.089-0.16-0.195-0.209-0.312s-0.073-0.242-0.073-0.368c0-0.126 0.025-0.251 0.073-0.368s0.119-0.222 0.209-0.312l11.52-11.52c0.089-0.089 0.195-0.16 0.312-0.209s0.242-0.073 0.368-0.073c0.126 0 0.251 0.025 0.368 0.073s0.223 0.119 0.312 0.209z"></path>
<path d="M23.72 3.8c0.089 0.089 0.16 0.195 0.209 0.312s0.073 0.242 0.073 0.368-0.025 0.251-0.073 0.368c-0.048 0.117-0.119 0.223-0.209 0.312l-10.842 10.84 10.842 10.84c0.089 0.089 0.16 0.195 0.208 0.312s0.073 0.242 0.073 0.368-0.025 0.251-0.073 0.368c-0.048 0.117-0.119 0.223-0.208 0.312s-0.195 0.16-0.312 0.208c-0.117 0.048-0.242 0.073-0.368 0.073s-0.251-0.025-0.368-0.073c-0.117-0.048-0.223-0.119-0.312-0.208l-11.52-11.52c-0.089-0.089-0.16-0.195-0.209-0.312s-0.073-0.242-0.073-0.368c0-0.126 0.025-0.251 0.073-0.368s0.119-0.222 0.209-0.312l11.52-11.52c0.089-0.089 0.195-0.16 0.312-0.209s0.242-0.073 0.368-0.073c0.126 0 0.251 0.025 0.368 0.073s0.223 0.119 0.312 0.209z"></path>
</symbol>
<symbol id="icon-chevron-down" viewBox="0 0 58 32">
<path d="M1.364 1.364c0.203-0.203 0.443-0.364 0.709-0.474s0.549-0.167 0.836-0.167c0.287 0 0.571 0.057 0.836 0.167s0.506 0.271 0.709 0.474l24.637 24.641 24.637-24.641c0.203-0.203 0.444-0.364 0.709-0.474s0.549-0.166 0.836-0.166c0.287 0 0.571 0.056 0.836 0.166s0.506 0.271 0.709 0.474c0.203 0.203 0.364 0.444 0.474 0.709s0.166 0.549 0.166 0.836-0.056 0.571-0.166 0.836c-0.11 0.265-0.271 0.506-0.474 0.709l-26.182 26.182c-0.203 0.203-0.444 0.364-0.709 0.474s-0.549 0.166-0.836 0.166c-0.287 0-0.571-0.056-0.836-0.166s-0.506-0.271-0.709-0.474l-26.182-26.182c-0.203-0.203-0.364-0.443-0.474-0.708s-0.167-0.549-0.167-0.836c0-0.287 0.057-0.571 0.167-0.836s0.271-0.506 0.474-0.708z"></path>
</symbol>
<symbol id="icon-plus" viewBox="0 0 32 32">
<path d="M16 0c0.53 0 1.039 0.211 1.414 0.586s0.586 0.884 0.586 1.414v12h12c0.53 0 1.039 0.211 1.414 0.586s0.586 0.884 0.586 1.414-0.211 1.039-0.586 1.414c-0.375 0.375-0.884 0.586-1.414 0.586h-12v12c0 0.53-0.211 1.039-0.586 1.414s-0.884 0.586-1.414 0.586-1.039-0.211-1.414-0.586c-0.375-0.375-0.586-0.884-0.586-1.414v-12h-12c-0.53 0-1.039-0.211-1.414-0.586s-0.586-0.884-0.586-1.414 0.211-1.039 0.586-1.414c0.375-0.375 0.884-0.586 1.414-0.586h12v-12c0-0.53 0.211-1.039 0.586-1.414s0.884-0.586 1.414-0.586z"></path>
</symbol>
<symbol id="icon-user" viewBox="0 0 43 32">
<path d="M40 32c0 0 2.667 0 2.667-2.667s-2.667-10.667-13.333-10.667c-10.667 0-13.333 8-13.333 10.667s2.667 2.667 2.667 2.667h21.333zM18.725 29.333c-0.020-0.003-0.039-0.006-0.059-0.011 0.003-0.704 0.445-2.747 2.027-4.587 1.472-1.725 4.059-3.403 8.64-3.403 4.579 0 7.165 1.68 8.64 3.403 1.581 1.84 2.021 3.885 2.027 4.587l-0.021 0.005c-0.012 0.002-0.025 0.004-0.037 0.005h-21.216zM29.333 13.333c1.414 0 2.771-0.562 3.771-1.562s1.562-2.357 1.562-3.771-0.562-2.771-1.562-3.771c-1-1-2.357-1.562-3.771-1.562s-2.771 0.562-3.771 1.562c-1 1-1.562 2.357-1.562 3.771s0.562 2.771 1.562 3.771c1 1 2.357 1.562 3.771 1.562zM37.333 8c0 1.051-0.207 2.091-0.609 3.061s-0.991 1.853-1.734 2.595c-0.743 0.743-1.625 1.332-2.595 1.734s-2.011 0.609-3.062 0.609-2.091-0.207-3.062-0.609c-0.97-0.402-1.852-0.991-2.595-1.734s-1.332-1.625-1.734-2.595c-0.402-0.971-0.609-2.011-0.609-3.061 0-2.122 0.843-4.157 2.343-5.657s3.535-2.343 5.657-2.343 4.157 0.843 5.657 2.343c1.5 1.5 2.343 3.535 2.343 5.657v0zM18.496 19.413c-1.067-0.336-2.166-0.557-3.28-0.659-0.626-0.059-1.254-0.089-1.883-0.088-10.667 0-13.333 8-13.333 10.667 0 1.779 0.888 2.667 2.667 2.667h11.243c-0.395-0.832-0.592-1.745-0.576-2.667 0-2.693 1.005-5.445 2.907-7.744 0.648-0.784 1.403-1.517 2.256-2.176zM13.12 21.333c-1.578 2.371-2.431 5.152-2.453 8h-8c0-0.693 0.437-2.747 2.027-4.597 1.453-1.696 3.979-3.349 8.427-3.4v-0.003zM4 9.333c0-2.122 0.843-4.157 2.343-5.657s3.535-2.343 5.657-2.343c2.122 0 4.157 0.843 5.657 2.343s2.343 3.535 2.343 5.657c0 2.122-0.843 4.157-2.343 5.657s-3.535 2.343-5.657 2.343c-2.122 0-4.157-0.843-5.657-2.343s-2.343-3.535-2.343-5.657v0zM12 4c-1.415 0-2.771 0.562-3.771 1.562s-1.562 2.357-1.562 3.771c0 1.415 0.562 2.771 1.562 3.771s2.357 1.562 3.771 1.562c1.415 0 2.771-0.562 3.771-1.562s1.562-2.357 1.562-3.771c0-1.415-0.562-2.771-1.562-3.771s-2.357-1.562-3.771-1.562z"></path>
</symbol>
<symbol id="icon-message-2" viewBox="0 0 32 32">
<path d="M10 16c0 0.53-0.211 1.039-0.586 1.414s-0.884 0.586-1.414 0.586c-0.53 0-1.039-0.211-1.414-0.586s-0.586-0.884-0.586-1.414c0-0.53 0.211-1.039 0.586-1.414s0.884-0.586 1.414-0.586c0.53 0 1.039 0.211 1.414 0.586s0.586 0.884 0.586 1.414v0zM18 16c0 0.53-0.211 1.039-0.586 1.414s-0.884 0.586-1.414 0.586c-0.53 0-1.039-0.211-1.414-0.586s-0.586-0.884-0.586-1.414c0-0.53 0.211-1.039 0.586-1.414s0.884-0.586 1.414-0.586c0.53 0 1.039 0.211 1.414 0.586s0.586 0.884 0.586 1.414zM24 18c0.53 0 1.039-0.211 1.414-0.586s0.586-0.884 0.586-1.414c0-0.53-0.211-1.039-0.586-1.414s-0.884-0.586-1.414-0.586c-0.53 0-1.039 0.211-1.414 0.586s-0.586 0.884-0.586 1.414c0 0.53 0.211 1.039 0.586 1.414s0.884 0.586 1.414 0.586v0z"></path>
<path d="M4.33 31.606l0.040-0.008c3.66-0.726 5.896-1.684 6.936-2.21 1.531 0.408 3.109 0.614 4.694 0.612 8.836 0 16-6.268 16-14s-7.164-14-16-14c-8.836 0-16 6.268-16 14 0 3.52 1.486 6.74 3.94 9.2-0.172 1.58-0.523 3.136-1.048 4.636l-0.006 0.022c-0.149 0.43-0.312 0.855-0.488 1.274-0.158 0.372 0.148 0.788 0.546 0.724 0.463-0.076 0.925-0.159 1.386-0.25v0zM5.93 25.39c0.028-0.293-0.009-0.588-0.108-0.865s-0.258-0.529-0.466-0.737c-2.12-2.128-3.356-4.852-3.356-7.788 0-6.384 6.008-12 14-12s14 5.616 14 12c0 6.386-6.008 12-14 12-1.41 0.002-2.814-0.181-4.176-0.544-0.476-0.128-0.982-0.075-1.422 0.148-0.774 0.392-2.48 1.14-5.268 1.786 0.389-1.306 0.655-2.645 0.796-4v0z"></path>
</symbol>

<symbol id="icon-message-3" viewBox="0 0 32 32">
<path stroke-linejoin="round" stroke-linecap="round" stroke-miterlimit="10" stroke-width="1.6" d="M29.334 8.333v6.8c0 1.693-0.56 3.12-1.56 4.107-0.987 1-2.413 1.56-4.107 1.56v2.413c0 0.907-1.013 1.453-1.76 0.947l-1.293-0.853c0.12-0.413 0.173-0.867 0.173-1.347v-5.427c0-2.72-1.813-4.533-4.533-4.533h-9.053c-0.187 0-0.36 0.013-0.533 0.027v-3.693c0-3.4 2.267-5.667 5.667-5.667h11.333c3.4 0 5.667 2.267 5.667 5.667z"></path>
<path stroke-linejoin="round" stroke-linecap="round" stroke-miterlimit="10" stroke-width="1.6" d="M20.787 16.533v5.427c0 0.48-0.053 0.933-0.173 1.347-0.493 1.96-2.12 3.187-4.36 3.187h-3.627l-4.027 2.68c-0.6 0.413-1.4-0.027-1.4-0.747v-1.933c-1.36 0-2.493-0.453-3.28-1.24-0.8-0.8-1.253-1.933-1.253-3.293v-5.427c0-2.533 1.573-4.28 4-4.507 0.173-0.013 0.347-0.027 0.533-0.027h9.053c2.72 0 4.533 1.813 4.533 4.533z"></path>
</symbol>
<symbol id="icon-bars" viewBox="0 0 41 32">
<path d="M1.714 29.714c0-0.455 0.181-0.891 0.502-1.212s0.758-0.502 1.212-0.502h34.286c0.455 0 0.891 0.181 1.212 0.502s0.502 0.758 0.502 1.212-0.181 0.891-0.502 1.212c-0.321 0.322-0.758 0.502-1.212 0.502h-34.286c-0.455 0-0.891-0.181-1.212-0.502s-0.502-0.758-0.502-1.212zM1.714 16c0-0.455 0.181-0.891 0.502-1.212s0.758-0.502 1.212-0.502h34.286c0.455 0 0.891 0.181 1.212 0.502s0.502 0.758 0.502 1.212-0.181 0.891-0.502 1.212c-0.321 0.322-0.758 0.502-1.212 0.502h-34.286c-0.455 0-0.891-0.181-1.212-0.502s-0.502-0.758-0.502-1.212zM1.714 2.286c0-0.455 0.181-0.891 0.502-1.212s0.758-0.502 1.212-0.502h34.286c0.455 0 0.891 0.181 1.212 0.502s0.502 0.758 0.502 1.212-0.181 0.891-0.502 1.212c-0.321 0.321-0.758 0.502-1.212 0.502h-34.286c-0.455 0-0.891-0.181-1.212-0.502s-0.502-0.758-0.502-1.212z"></path>
</symbol>
<symbol id="icon-close" viewBox="0 0 24 24">
<path d="M18.984 6.422l-5.578 5.578 5.578 5.578-1.406 1.406-5.578-5.578-5.578 5.578-1.406-1.406 5.578-5.578-5.578-5.578 1.406-1.406 5.578 5.578 5.578-5.578z"></path>
</symbol>
<symbol id="icon-plus1" viewBox="0 0 24 24">
<path d="M5 13h6v6c0 0.552 0.448 1 1 1s1-0.448 1-1v-6h6c0.552 0 1-0.448 1-1s-0.448-1-1-1h-6v-6c0-0.552-0.448-1-1-1s-1 0.448-1 1v6h-6c-0.552 0-1 0.448-1 1s0.448 1 1 1z"></path>
</symbol>
<symbol id="icon-bold" viewBox="0 0 32 32">
<path d="M8 14h9c1.326 0 2.598-0.527 3.536-1.464s1.464-2.209 1.464-3.536c0-1.326-0.527-2.598-1.464-3.536s-2.209-1.464-3.536-1.464h-9v10zM28 23c0 1.182-0.233 2.352-0.685 3.444s-1.115 2.084-1.951 2.92c-0.836 0.836-1.828 1.499-2.92 1.951s-2.262 0.685-3.444 0.685h-15v-32h13c1.762 0 3.485 0.517 4.956 1.488s2.624 2.351 3.318 3.971c0.693 1.62 0.896 3.407 0.583 5.141s-1.128 3.338-2.344 4.613c1.365 0.791 2.499 1.926 3.286 3.293s1.202 2.917 1.202 4.495zM8 18v10h11c1.326 0 2.598-0.527 3.536-1.464s1.464-2.21 1.464-3.536-0.527-2.598-1.464-3.536c-0.938-0.938-2.209-1.464-3.536-1.464h-11z"></path>
</symbol>
<symbol id="icon-italic" viewBox="0 0 32 32">
<path d="M20 26.667h-10.667v-2.667h3.903l2.821-16h-4.057v-2.667h10.667v2.667h-3.903l-2.821 16h4.057v2.667z"></path>
</symbol>
<symbol id="icon-send" viewBox="0 0 32 32">
<path d="M0.68 11.908c-0.795-0.265-0.803-0.693 0.015-0.966l29.085-9.694c0.806-0.268 1.268 0.183 1.042 0.972l-8.311 29.083c-0.229 0.806-0.693 0.833-1.035 0.069l-5.477-12.325 9.143-12.19-12.19 9.143-12.273-4.091z"></path>
</symbol>
<symbol id="icon-gallery" viewBox="0 0 32 32">
<path d="M4.525 29.6l-0.032 0.032-0.034-0.032h-2.872c-0.421-0-0.825-0.168-1.122-0.466s-0.465-0.702-0.465-1.123v-25.622c0.003-0.42 0.171-0.822 0.468-1.12s0.699-0.466 1.119-0.469h28.826c0.877 0 1.587 0.712 1.587 1.589v25.622c-0.003 0.42-0.171 0.822-0.468 1.12s-0.699 0.466-1.119 0.469h-25.888zM28.8 20v-16h-25.6v22.4l16-16 9.6 9.6zM28.8 24.525l-9.6-9.6-11.475 11.475h21.075v-1.875zM9.6 13.6c-0.849 0-1.663-0.337-2.263-0.937s-0.937-1.414-0.937-2.263c0-0.849 0.337-1.663 0.937-2.263s1.414-0.937 2.263-0.937c0.849 0 1.663 0.337 2.263 0.937s0.937 1.414 0.937 2.263c0 0.849-0.337 1.663-0.937 2.263s-1.414 0.937-2.263 0.937z"></path>
</symbol>
<symbol id="icon-link" viewBox="0 0 32 32">
<path d="M26.183 21.658l-2.262-2.266 2.262-2.262c0.748-0.742 1.343-1.624 1.749-2.596s0.617-2.015 0.619-3.068c0.002-1.054-0.204-2.097-0.606-3.071s-0.992-1.859-1.737-2.604c-0.745-0.745-1.63-1.335-2.604-1.738s-2.017-0.608-3.071-0.606c-1.054 0.002-2.096 0.213-3.068 0.619s-1.854 1.001-2.596 1.749l-2.262 2.264-2.264-2.262 2.266-2.262c2.101-2.101 4.949-3.281 7.92-3.281s5.819 1.18 7.92 3.281c2.1 2.1 3.28 4.949 3.28 7.92s-1.18 5.82-3.28 7.92l-2.266 2.262zM21.658 26.182l-2.264 2.262c-2.101 2.1-4.95 3.28-7.92 3.28s-5.819-1.18-7.92-3.28c-2.101-2.1-3.281-4.949-3.281-7.92s1.18-5.819 3.281-7.92l2.264-2.262 2.262 2.266-2.262 2.262c-0.748 0.742-1.343 1.624-1.749 2.596s-0.617 2.015-0.619 3.068c-0.002 1.054 0.204 2.097 0.606 3.071s0.993 1.859 1.738 2.604c0.745 0.745 1.63 1.336 2.603 1.738s2.017 0.608 3.071 0.606c1.054-0.002 2.096-0.213 3.068-0.619s1.854-1.001 2.596-1.749l2.262-2.262 2.264 2.261zM20.525 9.211l2.264 2.264-11.314 11.312-2.264-2.262 11.314-11.314z"></path>
</symbol>
<symbol id="icon-list-22" viewBox="0 0 32 32">
<path d="M8.889 1.778h23.111v3.556h-23.111v-3.556zM3.556 0v5.333h1.778v1.778h-5.333v-1.778h1.778v-3.556h-1.778v-1.778h3.556zM0 19.556v-4.444h3.556v-0.889h-3.556v-1.778h5.333v4.444h-3.556v0.889h3.556v1.778h-5.333zM3.556 29.333h-3.556v-1.778h3.556v-0.889h-3.556v-1.778h5.333v7.111h-5.333v-1.778h3.556v-0.889zM8.889 14.222h23.111v3.556h-23.111v-3.556zM8.889 26.667h23.111v3.556h-23.111v-3.556z"></path>
</symbol>
<symbol id="icon-list-1" viewBox="0 0 32 32">
<path d="M8.889 1.778h23.111v3.556h-23.111v-3.556zM0 0.889h5.333v5.333h-5.333v-5.333zM0 13.333h5.333v5.333h-5.333v-5.333zM0 25.778h5.333v5.333h-5.333v-5.333zM8.889 14.222h23.111v3.556h-23.111v-3.556zM8.889 26.667h23.111v3.556h-23.111v-3.556z"></path>
</symbol>
<symbol id="icon-list-2" viewBox="0 0 32 32">
<path d="M8.889 1.778h23.111v3.556h-23.111v-3.556zM3.556 0v5.333h1.778v1.778h-5.333v-1.778h1.778v-3.556h-1.778v-1.778h3.556zM0 19.556v-4.444h3.556v-0.889h-3.556v-1.778h5.333v4.444h-3.556v0.889h3.556v1.778h-5.333zM3.556 29.333h-3.556v-1.778h3.556v-0.889h-3.556v-1.778h5.333v7.111h-5.333v-1.778h3.556v-0.889zM8.889 14.222h23.111v3.556h-23.111v-3.556zM8.889 26.667h23.111v3.556h-23.111v-3.556z"></path>
</symbol>
</defs>
</svg>
