<svg width="16" height="16" viewBox="0 0 16 16" fill="none" xmlns="http://www.w3.org/2000/svg">
<path d="M14.6668 4.16671V7.56669C14.6668 8.41336 14.3868 9.1267 13.8868 9.62004C13.3935 10.12 12.6802 10.4 11.8335 10.4V11.6067C11.8335 12.06 11.3268 12.3334 10.9535 12.08L10.3068 11.6534C10.3668 11.4467 10.3935 11.22 10.3935 10.98V8.26672C10.3935 6.90672 9.48683 6.00004 8.12683 6.00004H3.60016C3.50683 6.00004 3.42016 6.00672 3.3335 6.01339V4.16671C3.3335 2.46671 4.46683 1.33337 6.16683 1.33337H11.8335C13.5335 1.33337 14.6668 2.46671 14.6668 4.16671Z" stroke="#1F1F1F" stroke-opacity="0.5" stroke-miterlimit="10" stroke-linecap="round" stroke-linejoin="round"/>
<path d="M10.3935 8.26668V10.98C10.3935 11.22 10.3668 11.4467 10.3068 11.6533C10.0602 12.6333 9.24683 13.2467 8.12683 13.2467H6.3135L4.30016 14.5867C4.00016 14.7933 3.60016 14.5733 3.60016 14.2133V13.2467C2.92016 13.2467 2.3535 13.02 1.96016 12.6267C1.56016 12.2267 1.3335 11.66 1.3335 10.98V8.26668C1.3335 7.00002 2.12016 6.12668 3.3335 6.01335C3.42016 6.00668 3.50683 6 3.60016 6H8.12683C9.48683 6 10.3935 6.90668 10.3935 8.26668Z" stroke="#1F1F1F" stroke-opacity="0.5" stroke-miterlimit="10" stroke-linecap="round" stroke-linejoin="round"/>
</svg>
